<svg id="visual" viewBox="0 0 900 300" width="900" height="300" xmlns="http://www.w3.org/2000/svg" xmlns:xlink="http://www.w3.org/1999/xlink" version="1.1"><rect x="0" y="0" width="900" height="300" fill="#202731"></rect><path d="M0 88L21.5 91.2C43 94.3 86 100.7 128.8 103C171.7 105.3 214.3 103.7 257.2 100C300 96.3 343 90.7 385.8 88.8C428.7 87 471.3 89 514.2 94.7C557 100.3 600 109.7 642.8 108.2C685.7 106.7 728.3 94.3 771.2 94C814 93.7 857 105.3 878.5 111.2L900 117L900 0L878.5 0C857 0 814 0 771.2 0C728.3 0 685.7 0 642.8 0C600 0 557 0 514.2 0C471.3 0 428.7 0 385.8 0C343 0 300 0 257.2 0C214.3 0 171.7 0 128.8 0C86 0 43 0 21.5 0L0 0Z" fill="#ff6f61"></path><path d="M0 78L21.5 80.7C43 83.3 86 88.7 128.8 85.3C171.7 82 214.3 70 257.2 67C300 64 343 70 385.8 72.5C428.7 75 471.3 74 514.2 74.2C557 74.3 600 75.7 642.8 76.2C685.7 76.7 728.3 76.3 771.2 80.5C814 84.7 857 93.3 878.5 97.7L900 102L900 0L878.5 0C857 0 814 0 771.2 0C728.3 0 685.7 0 642.8 0C600 0 557 0 514.2 0C471.3 0 428.7 0 385.8 0C343 0 300 0 257.2 0C214.3 0 171.7 0 128.8 0C86 0 43 0 21.5 0L0 0Z" fill="#f76455"></path><path d="M0 65L21.5 67C43 69 86 73 128.8 70.5C171.7 68 214.3 59 257.2 59.2C300 59.3 343 68.7 385.8 70.2C428.7 71.7 471.3 65.3 514.2 62.3C557 59.3 600 59.7 642.8 60.5C685.7 61.3 728.3 62.7 771.2 64.8C814 67 857 70 878.5 71.5L900 73L900 0L878.5 0C857 0 814 0 771.2 0C728.3 0 685.7 0 642.8 0C600 0 557 0 514.2 0C471.3 0 428.7 0 385.8 0C343 0 300 0 257.2 0C214.3 0 171.7 0 128.8 0C86 0 43 0 21.5 0L0 0Z" fill="#ee5849"></path><path d="M0 34L21.5 34.2C43 34.3 86 34.7 128.8 36.2C171.7 37.7 214.3 40.3 257.2 43.8C300 47.3 343 51.7 385.8 52.2C428.7 52.7 471.3 49.3 514.2 46.5C557 43.7 600 41.3 642.8 41C685.7 40.7 728.3 42.3 771.2 41.2C814 40 857 36 878.5 34L900 32L900 0L878.5 0C857 0 814 0 771.2 0C728.3 0 685.7 0 642.8 0C600 0 557 0 514.2 0C471.3 0 428.7 0 385.8 0C343 0 300 0 257.2 0C214.3 0 171.7 0 128.8 0C86 0 43 0 21.5 0L0 0Z" fill="#e64c3d"></path><path d="M0 25L21.5 25.2C43 25.3 86 25.7 128.8 24.3C171.7 23 214.3 20 257.2 19C300 18 343 19 385.8 18.2C428.7 17.3 471.3 14.7 514.2 13.5C557 12.3 600 12.7 642.8 13.8C685.7 15 728.3 17 771.2 20.2C814 23.3 857 27.7 878.5 29.8L900 32L900 0L878.5 0C857 0 814 0 771.2 0C728.3 0 685.7 0 642.8 0C600 0 557 0 514.2 0C471.3 0 428.7 0 385.8 0C343 0 300 0 257.2 0C214.3 0 171.7 0 128.8 0C86 0 43 0 21.5 0L0 0Z" fill="#dd3f31"></path></svg>