<svg id="visual" viewBox="0 0 900 300" width="900" height="300" xmlns="http://www.w3.org/2000/svg" xmlns:xlink="http://www.w3.org/1999/xlink" version="1.1"><rect x="0" y="0" width="900" height="300" fill="#202731"></rect><path d="M0 102L21.5 102.5C43 103 86 104 128.8 99.5C171.7 95 214.3 85 257.2 87.3C300 89.7 343 104.3 385.8 111.8C428.7 119.3 471.3 119.7 514.2 118.7C557 117.7 600 115.3 642.8 111.7C685.7 108 728.3 103 771.2 98.2C814 93.3 857 88.7 878.5 86.3L900 84L900 0L878.5 0C857 0 814 0 771.2 0C728.3 0 685.7 0 642.8 0C600 0 557 0 514.2 0C471.3 0 428.7 0 385.8 0C343 0 300 0 257.2 0C214.3 0 171.7 0 128.8 0C86 0 43 0 21.5 0L0 0Z" fill="#3e2756"></path><path d="M0 75L21.5 73.5C43 72 86 69 128.8 66.3C171.7 63.7 214.3 61.3 257.2 61.3C300 61.3 343 63.7 385.8 62.3C428.7 61 471.3 56 514.2 56.2C557 56.3 600 61.7 642.8 61.2C685.7 60.7 728.3 54.3 771.2 52.7C814 51 857 54 878.5 55.5L900 57L900 0L878.5 0C857 0 814 0 771.2 0C728.3 0 685.7 0 642.8 0C600 0 557 0 514.2 0C471.3 0 428.7 0 385.8 0C343 0 300 0 257.2 0C214.3 0 171.7 0 128.8 0C86 0 43 0 21.5 0L0 0Z" fill="#9d2477"></path><path d="M0 18L21.5 23.3C43 28.7 86 39.3 128.8 39.5C171.7 39.7 214.3 29.3 257.2 24.3C300 19.3 343 19.7 385.8 19.5C428.7 19.3 471.3 18.7 514.2 22.5C557 26.3 600 34.7 642.8 38C685.7 41.3 728.3 39.7 771.2 40.2C814 40.7 857 43.3 878.5 44.7L900 46L900 0L878.5 0C857 0 814 0 771.2 0C728.3 0 685.7 0 642.8 0C600 0 557 0 514.2 0C471.3 0 428.7 0 385.8 0C343 0 300 0 257.2 0C214.3 0 171.7 0 128.8 0C86 0 43 0 21.5 0L0 0Z" fill="#ff0066"></path></svg>